<svg width="95" height="95" viewBox="0 0 95 95" fill="none" xmlns="http://www.w3.org/2000/svg">
<path d="M27.3887 5.9099C28.4134 5.9099 29.2441 5.07918 29.2441 4.05444C29.2441 3.02969 28.4134 2.19897 27.3887 2.19897C26.3639 2.19897 25.5332 3.02969 25.5332 4.05444C25.5332 5.07918 26.3639 5.9099 27.3887 5.9099Z" fill="#252525"/>
<path d="M76.835 37.7104C77.8597 37.7104 78.6904 36.8797 78.6904 35.855C78.6904 34.8302 77.8597 33.9995 76.835 33.9995C75.8102 33.9995 74.9795 34.8302 74.9795 35.855C74.9795 36.8797 75.8102 37.7104 76.835 37.7104Z" fill="#252525"/>
<path d="M40.1045 37.2615C41.1292 37.2615 41.96 36.4308 41.96 35.406C41.96 34.3813 41.1292 33.5505 40.1045 33.5505C39.0797 33.5505 38.249 34.3813 38.249 35.406C38.249 36.4308 39.0797 37.2615 40.1045 37.2615Z" fill="#252525"/>
<path d="M94.8416 35.1042C94.5446 34.4322 93.879 33.9987 93.1444 33.9987H84.7149C83.6903 33.9987 82.8594 34.8294 82.8594 35.8542C82.8594 36.879 83.6903 37.7097 84.7149 37.7097H88.9448L77.8912 49.8465C77.4034 50.3821 77.2719 51.1529 77.5548 51.8199L82.9219 64.482H42.4789L45.3566 52.9512H65.0466C65.9021 52.9512 66.6469 52.3662 66.8493 51.5346L74.2703 21.0513C74.4052 20.4982 74.2783 19.9137 73.9265 19.4662C73.5747 19.0185 73.0368 18.757 72.4675 18.757H29.209L29.9106 15.8751C30.3063 14.2499 29.9946 12.6321 29.0554 11.4367C28.1397 10.2712 26.6976 9.60291 25.0986 9.60291C22.0503 9.60291 19.086 11.9725 18.3497 14.9973L17.1045 20.1126C17.0988 20.133 17.0919 20.1529 17.0869 20.1737L9.66874 50.6569L0.052975 90.155C-0.17636 91.0972 0.358385 92.0572 1.28055 92.358C2.1901 92.6545 3.13416 92.801 4.07618 92.801C5.60397 92.801 7.12582 92.4155 8.48124 91.6601C10.6724 90.439 12.2692 88.3409 12.8624 85.9037L20.8845 52.9512H41.5319L38.3034 65.8881C38.165 66.4423 38.2897 67.0294 38.6413 67.4795C38.9931 67.9298 39.5323 68.1929 40.1036 68.1929H85.7235C86.3458 68.1929 86.9268 67.8808 87.2706 67.3619C87.6142 66.8429 87.6749 66.1862 87.4318 65.6133L81.4353 51.4661L94.5164 37.1035C95.0108 36.5602 95.1383 35.7763 94.8416 35.1042ZM21.9553 15.8751C22.2874 14.5108 23.7564 13.314 25.0986 13.314C25.4237 13.314 25.8677 13.3862 26.1377 13.7296C26.3722 14.028 26.4316 14.4783 26.3052 14.9975L25.3899 18.7572H21.2537L21.9553 15.8751ZM9.25682 85.0259C8.90206 86.4834 7.98509 87.6883 6.67457 88.4184C5.87821 88.8624 5.00892 89.0903 4.12962 89.0966L12.9292 52.9512H17.0654L9.25682 85.0259ZM13.8326 49.2403L16.7486 37.2621H32.2859C33.3105 37.2621 34.1414 36.4314 34.1414 35.4067C34.1414 34.3819 33.3105 33.5512 32.2859 33.5512H17.6519L20.3501 22.468H70.1062L63.5887 49.2403H13.8326Z" fill="#252525"/>
</svg>
