<svg width="95" height="95" viewBox="0 0 95 95" fill="none" xmlns="http://www.w3.org/2000/svg">
<path d="M83.4434 44.502C83.3427 43.1039 82.1294 42.0544 80.7292 42.1528C79.331 42.2535 78.2793 43.4687 78.3798 44.867C78.4424 45.7307 78.4737 46.6169 78.4737 47.5001C78.4737 67.736 62.0109 84.1988 41.7751 84.1988C21.5394 84.1988 5.07656 67.7358 5.07656 47.5001C5.07656 27.2643 21.5394 10.8015 41.7753 10.8015C49.7893 10.8015 57.4002 13.3375 63.7849 18.1352C64.9058 18.9772 66.4967 18.7514 67.3389 17.6309C68.1813 16.5102 67.9554 14.9189 66.8347 14.0769C59.5633 8.61313 50.8979 5.7251 41.7751 5.7251C18.7404 5.72491 0 24.4653 0 47.5001C0 70.5348 18.7404 89.275 41.7753 89.275C64.8102 89.275 83.5503 70.535 83.5503 47.5001C83.5503 46.4955 83.5141 45.4869 83.4434 44.502Z" fill="#969696"/>
<path d="M92.1045 11.4612C88.2437 7.60051 81.9614 7.60051 78.1006 11.4612L41.5274 48.034L28.5625 35.0689C24.7017 31.2082 18.4194 31.2082 14.5585 35.0689C10.6977 38.9297 10.6977 45.212 14.5585 49.0728L36.8874 71.4017C38.1668 72.6811 39.8471 73.3206 41.5274 73.3206C43.2079 73.3206 44.8882 72.6811 46.1676 71.4017L92.1045 25.4648C95.965 21.6041 95.965 15.3222 92.1045 11.4612ZM88.5149 21.8754L42.5778 67.8127C41.9989 68.3916 41.0563 68.3916 40.4774 67.8127L18.1485 45.4836C16.2669 43.602 16.2669 40.5406 18.1485 38.659C19.0892 37.7179 20.3248 37.2477 21.5607 37.2477C22.7966 37.2477 24.0324 37.7181 24.9729 38.659L38.3104 51.9965C39.1699 52.8558 40.3126 53.3289 41.5276 53.3289C42.7431 53.3289 43.8859 52.8556 44.7452 51.9963L81.6903 15.0508C83.5714 13.1691 86.6333 13.1691 88.5149 15.0508C90.3964 16.9324 90.3964 19.9937 88.5149 21.8754Z" fill="#969696"/>
</svg>
