<svg width="95" height="95" viewBox="0 0 95 95" fill="none" xmlns="http://www.w3.org/2000/svg">
<path d="M27.3883 5.9099C28.4131 5.9099 29.2438 5.07918 29.2438 4.05444C29.2438 3.02969 28.4131 2.19897 27.3883 2.19897C26.3636 2.19897 25.5329 3.02969 25.5329 4.05444C25.5329 5.07918 26.3636 5.9099 27.3883 5.9099Z" fill="#969696"/>
<path d="M76.8348 37.7104C77.8596 37.7104 78.6903 36.8797 78.6903 35.855C78.6903 34.8302 77.8596 33.9995 76.8348 33.9995C75.8101 33.9995 74.9794 34.8302 74.9794 35.855C74.9794 36.8797 75.8101 37.7104 76.8348 37.7104Z" fill="#969696"/>
<path d="M40.104 37.2615C41.1288 37.2615 41.9595 36.4308 41.9595 35.406C41.9595 34.3813 41.1288 33.5505 40.104 33.5505C39.0793 33.5505 38.2486 34.3813 38.2486 35.406C38.2486 36.4308 39.0793 37.2615 40.104 37.2615Z" fill="#969696"/>
<path d="M94.8417 35.1044C94.5447 34.4323 93.8791 33.9989 93.1445 33.9989H84.715C83.6904 33.9989 82.8595 34.8296 82.8595 35.8543C82.8595 36.8791 83.6904 37.7098 84.715 37.7098H88.9449L77.8913 49.8466C77.4035 50.3823 77.272 51.153 77.5549 51.8201L82.922 64.4821H42.479L45.3567 52.9513H65.0467C65.9022 52.9513 66.647 52.3663 66.8494 51.5347L74.2704 21.0514C74.4053 20.4983 74.2784 19.9138 73.9266 19.4663C73.5748 19.0186 73.0369 18.7572 72.4676 18.7572H29.2091L29.9107 15.8752C30.3064 14.25 29.9947 12.6323 29.0555 11.4368C28.1398 10.2714 26.6977 9.60303 25.0987 9.60303C22.0504 9.60303 19.0861 11.9726 18.3498 14.9974L17.1046 20.1128C17.0989 20.1332 17.092 20.153 17.087 20.1738L9.66884 50.6571L0.053077 90.1551C-0.176258 91.0973 0.358487 92.0573 1.28065 92.3581C2.1902 92.6546 3.13426 92.8012 4.07628 92.8012C5.60407 92.8012 7.12592 92.4156 8.48134 91.6602C10.6725 90.4392 12.2693 88.341 12.8625 85.9038L20.8846 52.9513H41.532L38.3035 65.8882C38.1651 66.4424 38.2898 67.0295 38.6414 67.4796C38.9932 67.9299 39.5324 68.1931 40.1037 68.1931H85.7236C86.3459 68.1931 86.9269 67.881 87.2707 67.362C87.6143 66.843 87.675 66.1864 87.4319 65.6134L81.4354 51.4662L94.5165 37.1036C95.011 36.5603 95.1384 35.7764 94.8417 35.1044ZM21.9554 15.8752C22.2875 14.5109 23.7565 13.3141 25.0987 13.3141C25.4238 13.3141 25.8678 13.3863 26.1378 13.7298C26.3723 14.0281 26.4317 14.4784 26.3053 14.9976L25.39 18.7573H21.2538L21.9554 15.8752ZM9.25693 85.026C8.90216 86.4835 7.98519 87.6884 6.67467 88.4186C5.87831 88.8626 5.00902 89.0904 4.12972 89.0967L12.9293 52.9513H17.0655L9.25693 85.026ZM13.8327 49.2404L16.7487 37.2623H32.286C33.3106 37.2623 34.1415 36.4316 34.1415 35.4068C34.1415 34.382 33.3106 33.5513 32.286 33.5513H17.652L20.3502 22.4681H70.1063L63.5888 49.2404H13.8327Z" fill="#969696"/>
</svg>
