<svg width="95" height="95" viewBox="0 0 95 95" fill="none" xmlns="http://www.w3.org/2000/svg">
<g clip-path="url(#clip0)">
<path d="M82.3624 67.1676L82.3625 67.1676C82.8328 66.6974 83.5401 66.5567 84.1546 66.8114C84.7689 67.0659 85.1695 67.6654 85.1698 68.3303V68.3304V83.5687C85.1698 84.4769 84.4336 85.213 83.5254 85.213H68.2871C67.6223 85.213 67.0223 84.8128 66.7679 84.198L82.3624 67.1676ZM82.3624 67.1676L67.1242 82.4059L67.1241 82.4059M82.3624 67.1676L67.1241 82.4059M67.1241 82.4059C66.654 82.8763 66.5132 83.5835 66.7679 84.1979L67.1241 82.4059ZM81.8806 81.9245H72.2565L81.8806 72.3003V81.9245Z" fill="#252525" stroke="#252525" stroke-width="0.5"/>
<mask id="path-2-outside-1" maskUnits="userSpaceOnUse" x="-1" y="-0.8479" width="97" height="97" fill="black">
<rect fill="white" x="-1" y="-0.8479" width="97" height="97"/>
<path d="M94.1394 44.6922C93.6184 44.4762 93.0187 44.5955 92.6198 44.9942L88.4437 49.1703V20.7759C88.4437 20.0057 87.8193 19.3815 87.0493 19.3815H76.3356L80.2247 15.4924C80.2253 15.4918 80.2258 15.4911 80.2264 15.4905L83.9737 11.7432C84.7765 10.9404 85.2187 9.87236 85.2187 8.73681C85.2187 7.60126 84.7765 6.53363 83.9737 5.73039L79.6404 1.39712C78.8375 0.594259 77.7695 0.1521 76.634 0.1521C75.4984 0.1521 74.4306 0.594259 73.6276 1.39712L69.8784 5.14629L65.3481 9.67661L55.6434 19.3813H12.3612V5.58678C12.3612 4.81657 11.7368 4.19239 10.9668 4.19239C4.91979 4.19276 0 9.11218 0 15.1595V74.3836C0 74.4866 0.011875 74.5868 0.0330274 74.6833C0.225625 77.2492 1.33575 79.6333 3.19104 81.4431C5.17417 83.3773 7.79206 84.4425 10.5626 84.4425H53.1713L45.1466 92.4672C44.7479 92.8662 44.6286 93.4657 44.8444 93.9869C45.0602 94.5079 45.5687 94.8476 46.1326 94.8476H93.6058C94.3758 94.8476 95.0002 94.2234 95.0002 93.4532V45.9804C95.0002 45.4165 94.6603 44.9079 94.1394 44.6922ZM75.5999 3.3693C76.1699 2.79893 77.0986 2.79893 77.6686 3.3693L82.002 7.70276C82.5724 8.27295 82.5724 9.20124 82.002 9.77161L79.2391 12.5348L72.8366 6.13247L75.5999 3.3693ZM70.8646 8.10447L77.2669 14.5066L74.7084 17.0651L68.3064 10.663L70.8646 8.10447ZM92.2118 61.6484H89.6392C88.869 61.6484 88.2448 62.2726 88.2448 63.0428C88.2448 63.813 88.869 64.4372 89.6392 64.4372H92.2118V68.6391H89.6392C88.869 68.6391 88.2448 69.2632 88.2448 70.0335C88.2448 70.8037 88.869 71.4278 89.6392 71.4278H92.2118V75.6296H89.6392C88.869 75.6296 88.2448 76.2537 88.2448 77.0239C88.2448 77.7942 88.869 78.4183 89.6392 78.4183H92.2118V82.6202H89.6392C88.869 82.6202 88.2448 83.2446 88.2448 84.0146C88.2448 84.7848 88.869 85.409 89.6392 85.409H92.2118V92.0594H49.4988L63.5833 77.9751C64.1279 77.4303 64.1279 76.5476 63.5833 76.0031C63.5208 75.9405 63.4536 75.8864 63.3833 75.8381C62.8404 75.4663 62.0934 75.521 61.6111 76.0031L55.9601 81.6541H10.5628C6.33384 81.6541 2.92942 78.3525 2.79545 74.1311C2.80343 73.8661 2.82403 73.6034 2.85706 73.3436C2.85724 73.3421 2.85743 73.3406 2.85761 73.3392C2.8732 73.2158 2.89194 73.0929 2.91328 72.9708C2.91569 72.9569 2.91829 72.943 2.9207 72.9291C2.94018 72.8202 2.96208 72.7118 2.98601 72.6038C2.99269 72.5738 2.99974 72.5437 3.00679 72.5138C3.02795 72.4226 3.05077 72.3318 3.07526 72.2415C3.08862 72.1925 3.10254 72.1441 3.11682 72.0953C3.13723 72.0244 3.15839 71.9537 3.18084 71.8837C3.20329 71.8138 3.22722 71.7446 3.25153 71.6754C3.26841 71.6269 3.28511 71.5785 3.3033 71.5304C3.33725 71.4392 3.37325 71.3488 3.41036 71.2592C3.42093 71.2334 3.43133 71.2072 3.44227 71.1814C3.48996 71.0701 3.5395 70.9601 3.59182 70.8513C3.59405 70.8467 3.59609 70.8421 3.59832 70.8374C4.68896 68.5804 6.78658 66.8977 9.3039 66.3756C9.31095 66.3741 9.318 66.3724 9.32505 66.3709C9.44046 66.3474 9.55698 66.3271 9.67425 66.3084C9.69373 66.3053 9.71321 66.3014 9.73307 66.2984C9.83901 66.2822 9.94607 66.2696 10.0531 66.2576C10.0832 66.2542 10.1131 66.2496 10.1433 66.2466C10.2467 66.2362 10.3509 66.2294 10.4552 66.2229C10.4882 66.2208 10.5213 66.2173 10.5543 66.2156C10.6909 66.2088 10.8285 66.2052 10.9668 66.2052C11.7368 66.2052 12.3612 65.5811 12.3612 64.8109V54.7006C12.3612 53.9304 11.7368 53.3062 10.9668 53.3062C10.1967 53.3062 9.57238 53.9304 9.57238 54.7006V63.5042C7.21779 63.802 5.03223 64.8522 3.30886 66.5351C3.12758 66.7122 2.95577 66.8962 2.7884 67.0833V15.1595C2.7884 11.1255 5.72487 7.76399 9.5722 7.1001V20.7759V49.1232V49.1234C9.5722 49.8934 10.1966 50.5178 10.9666 50.5178C11.7366 50.5178 12.361 49.8934 12.361 49.1234V49.1232V22.1702H52.8548L45.1464 29.8786C44.6018 30.4234 44.6018 31.306 45.1464 31.8506C45.691 32.395 46.5738 32.395 47.1182 31.8506L57.207 21.7619C57.2074 21.7615 57.2076 21.7611 57.2079 21.7609L66.3341 12.6348L72.736 19.0371L71.9849 19.7882C71.9844 19.7887 71.9836 19.7893 71.9831 19.7899L43.8675 47.9058L37.4653 41.5037L43.0073 35.9618C43.5518 35.417 43.5518 34.5344 43.0073 33.9898C42.4627 33.4454 41.5798 33.4454 41.0354 33.9898L34.5073 40.5177C34.4725 40.5526 34.4398 40.5895 34.4092 40.6274C34.399 40.64 34.3899 40.6535 34.3802 40.6667C34.3606 40.6929 34.3413 40.7192 34.3233 40.7467C34.3131 40.7626 34.3038 40.779 34.2941 40.7955C34.2787 40.8215 34.2639 40.8478 34.2504 40.8747C34.2414 40.8921 34.2335 40.9098 34.2253 40.928C34.2129 40.9552 34.2014 40.9831 34.1908 41.0109C34.1871 41.0207 34.1823 41.03 34.1787 41.0398L31.4621 48.7354L29.61 53.9825C29.5855 54.0523 29.5679 54.1231 29.5547 54.1946H24.9175C24.1475 54.1946 23.5231 54.8188 23.5231 55.589C23.5231 56.3592 24.1475 56.9834 24.9175 56.9834H63.5325C64.3027 56.9834 64.9269 56.3592 64.9269 55.589C64.9269 54.8188 64.3027 54.1946 63.5325 54.1946H35.8279L44.3315 51.1928C44.3386 51.1902 44.3452 51.1867 44.3523 51.1841C44.3853 51.1718 44.4178 51.1581 44.4499 51.1434C44.4627 51.1375 44.4755 51.1319 44.4879 51.1258C44.5213 51.1091 44.5542 51.0908 44.5864 51.0711C44.5968 51.0648 44.6076 51.059 44.6178 51.0525C44.6514 51.031 44.684 51.0074 44.7161 50.9826C44.7241 50.9765 44.7325 50.9711 44.7403 50.9648C44.779 50.9336 44.8171 50.9 44.8531 50.864L73.5468 22.1704H85.6547V51.9593L65.7091 71.9051C65.1646 72.4498 65.1646 73.3325 65.7091 73.8771C65.7431 73.911 65.7785 73.9429 65.8151 73.9728C66.0708 74.1812 66.383 74.2855 66.6951 74.2855C67.0072 74.2855 67.3197 74.1812 67.5752 73.9728C67.6117 73.9431 67.6472 73.911 67.6811 73.8771C67.6817 73.8765 67.6811 73.8771 67.6817 73.8765L92.2118 49.3462V61.6484ZM41.3171 49.2991L37.323 50.7091L34.6619 48.048L36.0719 44.0539L41.3171 49.2991Z"/>
</mask>
<path d="M94.1394 44.6922C93.6184 44.4762 93.0187 44.5955 92.6198 44.9942L88.4437 49.1703V20.7759C88.4437 20.0057 87.8193 19.3815 87.0493 19.3815H76.3356L80.2247 15.4924C80.2253 15.4918 80.2258 15.4911 80.2264 15.4905L83.9737 11.7432C84.7765 10.9404 85.2187 9.87236 85.2187 8.73681C85.2187 7.60126 84.7765 6.53363 83.9737 5.73039L79.6404 1.39712C78.8375 0.594259 77.7695 0.1521 76.634 0.1521C75.4984 0.1521 74.4306 0.594259 73.6276 1.39712L69.8784 5.14629L65.3481 9.67661L55.6434 19.3813H12.3612V5.58678C12.3612 4.81657 11.7368 4.19239 10.9668 4.19239C4.91979 4.19276 0 9.11218 0 15.1595V74.3836C0 74.4866 0.011875 74.5868 0.0330274 74.6833C0.225625 77.2492 1.33575 79.6333 3.19104 81.4431C5.17417 83.3773 7.79206 84.4425 10.5626 84.4425H53.1713L45.1466 92.4672C44.7479 92.8662 44.6286 93.4657 44.8444 93.9869C45.0602 94.5079 45.5687 94.8476 46.1326 94.8476H93.6058C94.3758 94.8476 95.0002 94.2234 95.0002 93.4532V45.9804C95.0002 45.4165 94.6603 44.9079 94.1394 44.6922ZM75.5999 3.3693C76.1699 2.79893 77.0986 2.79893 77.6686 3.3693L82.002 7.70276C82.5724 8.27295 82.5724 9.20124 82.002 9.77161L79.2391 12.5348L72.8366 6.13247L75.5999 3.3693ZM70.8646 8.10447L77.2669 14.5066L74.7084 17.0651L68.3064 10.663L70.8646 8.10447ZM92.2118 61.6484H89.6392C88.869 61.6484 88.2448 62.2726 88.2448 63.0428C88.2448 63.813 88.869 64.4372 89.6392 64.4372H92.2118V68.6391H89.6392C88.869 68.6391 88.2448 69.2632 88.2448 70.0335C88.2448 70.8037 88.869 71.4278 89.6392 71.4278H92.2118V75.6296H89.6392C88.869 75.6296 88.2448 76.2537 88.2448 77.0239C88.2448 77.7942 88.869 78.4183 89.6392 78.4183H92.2118V82.6202H89.6392C88.869 82.6202 88.2448 83.2446 88.2448 84.0146C88.2448 84.7848 88.869 85.409 89.6392 85.409H92.2118V92.0594H49.4988L63.5833 77.9751C64.1279 77.4303 64.1279 76.5476 63.5833 76.0031C63.5208 75.9405 63.4536 75.8864 63.3833 75.8381C62.8404 75.4663 62.0934 75.521 61.6111 76.0031L55.9601 81.6541H10.5628C6.33384 81.6541 2.92942 78.3525 2.79545 74.1311C2.80343 73.8661 2.82403 73.6034 2.85706 73.3436C2.85724 73.3421 2.85743 73.3406 2.85761 73.3392C2.8732 73.2158 2.89194 73.0929 2.91328 72.9708C2.91569 72.9569 2.91829 72.943 2.9207 72.9291C2.94018 72.8202 2.96208 72.7118 2.98601 72.6038C2.99269 72.5738 2.99974 72.5437 3.00679 72.5138C3.02795 72.4226 3.05077 72.3318 3.07526 72.2415C3.08862 72.1925 3.10254 72.1441 3.11682 72.0953C3.13723 72.0244 3.15839 71.9537 3.18084 71.8837C3.20329 71.8138 3.22722 71.7446 3.25153 71.6754C3.26841 71.6269 3.28511 71.5785 3.3033 71.5304C3.33725 71.4392 3.37325 71.3488 3.41036 71.2592C3.42093 71.2334 3.43133 71.2072 3.44227 71.1814C3.48996 71.0701 3.5395 70.9601 3.59182 70.8513C3.59405 70.8467 3.59609 70.8421 3.59832 70.8374C4.68896 68.5804 6.78658 66.8977 9.3039 66.3756C9.31095 66.3741 9.318 66.3724 9.32505 66.3709C9.44046 66.3474 9.55698 66.3271 9.67425 66.3084C9.69373 66.3053 9.71321 66.3014 9.73307 66.2984C9.83901 66.2822 9.94607 66.2696 10.0531 66.2576C10.0832 66.2542 10.1131 66.2496 10.1433 66.2466C10.2467 66.2362 10.3509 66.2294 10.4552 66.2229C10.4882 66.2208 10.5213 66.2173 10.5543 66.2156C10.6909 66.2088 10.8285 66.2052 10.9668 66.2052C11.7368 66.2052 12.3612 65.5811 12.3612 64.8109V54.7006C12.3612 53.9304 11.7368 53.3062 10.9668 53.3062C10.1967 53.3062 9.57238 53.9304 9.57238 54.7006V63.5042C7.21779 63.802 5.03223 64.8522 3.30886 66.5351C3.12758 66.7122 2.95577 66.8962 2.7884 67.0833V15.1595C2.7884 11.1255 5.72487 7.76399 9.5722 7.1001V20.7759V49.1232V49.1234C9.5722 49.8934 10.1966 50.5178 10.9666 50.5178C11.7366 50.5178 12.361 49.8934 12.361 49.1234V49.1232V22.1702H52.8548L45.1464 29.8786C44.6018 30.4234 44.6018 31.306 45.1464 31.8506C45.691 32.395 46.5738 32.395 47.1182 31.8506L57.207 21.7619C57.2074 21.7615 57.2076 21.7611 57.2079 21.7609L66.3341 12.6348L72.736 19.0371L71.9849 19.7882C71.9844 19.7887 71.9836 19.7893 71.9831 19.7899L43.8675 47.9058L37.4653 41.5037L43.0073 35.9618C43.5518 35.417 43.5518 34.5344 43.0073 33.9898C42.4627 33.4454 41.5798 33.4454 41.0354 33.9898L34.5073 40.5177C34.4725 40.5526 34.4398 40.5895 34.4092 40.6274C34.399 40.64 34.3899 40.6535 34.3802 40.6667C34.3606 40.6929 34.3413 40.7192 34.3233 40.7467C34.3131 40.7626 34.3038 40.779 34.2941 40.7955C34.2787 40.8215 34.2639 40.8478 34.2504 40.8747C34.2414 40.8921 34.2335 40.9098 34.2253 40.928C34.2129 40.9552 34.2014 40.9831 34.1908 41.0109C34.1871 41.0207 34.1823 41.03 34.1787 41.0398L31.4621 48.7354L29.61 53.9825C29.5855 54.0523 29.5679 54.1231 29.5547 54.1946H24.9175C24.1475 54.1946 23.5231 54.8188 23.5231 55.589C23.5231 56.3592 24.1475 56.9834 24.9175 56.9834H63.5325C64.3027 56.9834 64.9269 56.3592 64.9269 55.589C64.9269 54.8188 64.3027 54.1946 63.5325 54.1946H35.8279L44.3315 51.1928C44.3386 51.1902 44.3452 51.1867 44.3523 51.1841C44.3853 51.1718 44.4178 51.1581 44.4499 51.1434C44.4627 51.1375 44.4755 51.1319 44.4879 51.1258C44.5213 51.1091 44.5542 51.0908 44.5864 51.0711C44.5968 51.0648 44.6076 51.059 44.6178 51.0525C44.6514 51.031 44.684 51.0074 44.7161 50.9826C44.7241 50.9765 44.7325 50.9711 44.7403 50.9648C44.779 50.9336 44.8171 50.9 44.8531 50.864L73.5468 22.1704H85.6547V51.9593L65.7091 71.9051C65.1646 72.4498 65.1646 73.3325 65.7091 73.8771C65.7431 73.911 65.7785 73.9429 65.8151 73.9728C66.0708 74.1812 66.383 74.2855 66.6951 74.2855C67.0072 74.2855 67.3197 74.1812 67.5752 73.9728C67.6117 73.9431 67.6472 73.911 67.6811 73.8771C67.6817 73.8765 67.6811 73.8771 67.6817 73.8765L92.2118 49.3462V61.6484ZM41.3171 49.2991L37.323 50.7091L34.6619 48.048L36.0719 44.0539L41.3171 49.2991Z" fill="#252525"/>
<path d="M94.1394 44.6922C93.6184 44.4762 93.0187 44.5955 92.6198 44.9942L88.4437 49.1703V20.7759C88.4437 20.0057 87.8193 19.3815 87.0493 19.3815H76.3356L80.2247 15.4924C80.2253 15.4918 80.2258 15.4911 80.2264 15.4905L83.9737 11.7432C84.7765 10.9404 85.2187 9.87236 85.2187 8.73681C85.2187 7.60126 84.7765 6.53363 83.9737 5.73039L79.6404 1.39712C78.8375 0.594259 77.7695 0.1521 76.634 0.1521C75.4984 0.1521 74.4306 0.594259 73.6276 1.39712L69.8784 5.14629L65.3481 9.67661L55.6434 19.3813H12.3612V5.58678C12.3612 4.81657 11.7368 4.19239 10.9668 4.19239C4.91979 4.19276 0 9.11218 0 15.1595V74.3836C0 74.4866 0.011875 74.5868 0.0330274 74.6833C0.225625 77.2492 1.33575 79.6333 3.19104 81.4431C5.17417 83.3773 7.79206 84.4425 10.5626 84.4425H53.1713L45.1466 92.4672C44.7479 92.8662 44.6286 93.4657 44.8444 93.9869C45.0602 94.5079 45.5687 94.8476 46.1326 94.8476H93.6058C94.3758 94.8476 95.0002 94.2234 95.0002 93.4532V45.9804C95.0002 45.4165 94.6603 44.9079 94.1394 44.6922ZM75.5999 3.3693C76.1699 2.79893 77.0986 2.79893 77.6686 3.3693L82.002 7.70276C82.5724 8.27295 82.5724 9.20124 82.002 9.77161L79.2391 12.5348L72.8366 6.13247L75.5999 3.3693ZM70.8646 8.10447L77.2669 14.5066L74.7084 17.0651L68.3064 10.663L70.8646 8.10447ZM92.2118 61.6484H89.6392C88.869 61.6484 88.2448 62.2726 88.2448 63.0428C88.2448 63.813 88.869 64.4372 89.6392 64.4372H92.2118V68.6391H89.6392C88.869 68.6391 88.2448 69.2632 88.2448 70.0335C88.2448 70.8037 88.869 71.4278 89.6392 71.4278H92.2118V75.6296H89.6392C88.869 75.6296 88.2448 76.2537 88.2448 77.0239C88.2448 77.7942 88.869 78.4183 89.6392 78.4183H92.2118V82.6202H89.6392C88.869 82.6202 88.2448 83.2446 88.2448 84.0146C88.2448 84.7848 88.869 85.409 89.6392 85.409H92.2118V92.0594H49.4988L63.5833 77.9751C64.1279 77.4303 64.1279 76.5476 63.5833 76.0031C63.5208 75.9405 63.4536 75.8864 63.3833 75.8381C62.8404 75.4663 62.0934 75.521 61.6111 76.0031L55.9601 81.6541H10.5628C6.33384 81.6541 2.92942 78.3525 2.79545 74.1311C2.80343 73.8661 2.82403 73.6034 2.85706 73.3436C2.85724 73.3421 2.85743 73.3406 2.85761 73.3392C2.8732 73.2158 2.89194 73.0929 2.91328 72.9708C2.91569 72.9569 2.91829 72.943 2.9207 72.9291C2.94018 72.8202 2.96208 72.7118 2.98601 72.6038C2.99269 72.5738 2.99974 72.5437 3.00679 72.5138C3.02795 72.4226 3.05077 72.3318 3.07526 72.2415C3.08862 72.1925 3.10254 72.1441 3.11682 72.0953C3.13723 72.0244 3.15839 71.9537 3.18084 71.8837C3.20329 71.8138 3.22722 71.7446 3.25153 71.6754C3.26841 71.6269 3.28511 71.5785 3.3033 71.5304C3.33725 71.4392 3.37325 71.3488 3.41036 71.2592C3.42093 71.2334 3.43133 71.2072 3.44227 71.1814C3.48996 71.0701 3.5395 70.9601 3.59182 70.8513C3.59405 70.8467 3.59609 70.8421 3.59832 70.8374C4.68896 68.5804 6.78658 66.8977 9.3039 66.3756C9.31095 66.3741 9.318 66.3724 9.32505 66.3709C9.44046 66.3474 9.55698 66.3271 9.67425 66.3084C9.69373 66.3053 9.71321 66.3014 9.73307 66.2984C9.83901 66.2822 9.94607 66.2696 10.0531 66.2576C10.0832 66.2542 10.1131 66.2496 10.1433 66.2466C10.2467 66.2362 10.3509 66.2294 10.4552 66.2229C10.4882 66.2208 10.5213 66.2173 10.5543 66.2156C10.6909 66.2088 10.8285 66.2052 10.9668 66.2052C11.7368 66.2052 12.3612 65.5811 12.3612 64.8109V54.7006C12.3612 53.9304 11.7368 53.3062 10.9668 53.3062C10.1967 53.3062 9.57238 53.9304 9.57238 54.7006V63.5042C7.21779 63.802 5.03223 64.8522 3.30886 66.5351C3.12758 66.7122 2.95577 66.8962 2.7884 67.0833V15.1595C2.7884 11.1255 5.72487 7.76399 9.5722 7.1001V20.7759V49.1232V49.1234C9.5722 49.8934 10.1966 50.5178 10.9666 50.5178C11.7366 50.5178 12.361 49.8934 12.361 49.1234V49.1232V22.1702H52.8548L45.1464 29.8786C44.6018 30.4234 44.6018 31.306 45.1464 31.8506C45.691 32.395 46.5738 32.395 47.1182 31.8506L57.207 21.7619C57.2074 21.7615 57.2076 21.7611 57.2079 21.7609L66.3341 12.6348L72.736 19.0371L71.9849 19.7882C71.9844 19.7887 71.9836 19.7893 71.9831 19.7899L43.8675 47.9058L37.4653 41.5037L43.0073 35.9618C43.5518 35.417 43.5518 34.5344 43.0073 33.9898C42.4627 33.4454 41.5798 33.4454 41.0354 33.9898L34.5073 40.5177C34.4725 40.5526 34.4398 40.5895 34.4092 40.6274C34.399 40.64 34.3899 40.6535 34.3802 40.6667C34.3606 40.6929 34.3413 40.7192 34.3233 40.7467C34.3131 40.7626 34.3038 40.779 34.2941 40.7955C34.2787 40.8215 34.2639 40.8478 34.2504 40.8747C34.2414 40.8921 34.2335 40.9098 34.2253 40.928C34.2129 40.9552 34.2014 40.9831 34.1908 41.0109C34.1871 41.0207 34.1823 41.03 34.1787 41.0398L31.4621 48.7354L29.61 53.9825C29.5855 54.0523 29.5679 54.1231 29.5547 54.1946H24.9175C24.1475 54.1946 23.5231 54.8188 23.5231 55.589C23.5231 56.3592 24.1475 56.9834 24.9175 56.9834H63.5325C64.3027 56.9834 64.9269 56.3592 64.9269 55.589C64.9269 54.8188 64.3027 54.1946 63.5325 54.1946H35.8279L44.3315 51.1928C44.3386 51.1902 44.3452 51.1867 44.3523 51.1841C44.3853 51.1718 44.4178 51.1581 44.4499 51.1434C44.4627 51.1375 44.4755 51.1319 44.4879 51.1258C44.5213 51.1091 44.5542 51.0908 44.5864 51.0711C44.5968 51.0648 44.6076 51.059 44.6178 51.0525C44.6514 51.031 44.684 51.0074 44.7161 50.9826C44.7241 50.9765 44.7325 50.9711 44.7403 50.9648C44.779 50.9336 44.8171 50.9 44.8531 50.864L73.5468 22.1704H85.6547V51.9593L65.7091 71.9051C65.1646 72.4498 65.1646 73.3325 65.7091 73.8771C65.7431 73.911 65.7785 73.9429 65.8151 73.9728C66.0708 74.1812 66.383 74.2855 66.6951 74.2855C67.0072 74.2855 67.3197 74.1812 67.5752 73.9728C67.6117 73.9431 67.6472 73.911 67.6811 73.8771C67.6817 73.8765 67.6811 73.8771 67.6817 73.8765L92.2118 49.3462V61.6484ZM41.3171 49.2991L37.323 50.7091L34.6619 48.048L36.0719 44.0539L41.3171 49.2991Z" stroke="#252525" mask="url(#path-2-outside-1)"/>
</g>
<defs>
<clipPath id="clip0">
<rect width="95" height="95" fill="white"/>
</clipPath>
</defs>
</svg>
