<svg width="95" height="95" viewBox="0 0 95 95" fill="none" xmlns="http://www.w3.org/2000/svg">
<path d="M87.855 35.2049H87.8548L83.6954 34.713C83.2426 33.4322 82.7203 32.1723 82.1346 30.9477L84.7283 27.6578C87.2677 24.4371 87.2608 20.0864 84.7127 17.5379L77.461 10.2862C74.9127 7.73786 70.562 7.731 67.3407 10.2708L64.051 12.8649C62.8258 12.2787 61.5659 11.7564 60.2855 11.3041L59.7936 7.14467C59.3117 3.07154 56.2307 0 52.6267 0H42.3713C38.7672 0 35.686 3.07173 35.2044 7.14541L34.7127 11.3048C33.4326 11.7574 32.1736 12.2791 30.949 12.8649L27.6593 10.2708C24.4384 7.73118 20.0877 7.73749 17.539 10.2862L10.2875 17.5377C7.73916 20.0862 7.7323 24.4369 10.2719 27.6576L12.8656 30.9474C12.2795 32.1723 11.7572 33.4322 11.3046 34.7127L7.14504 35.2045C3.07173 35.6862 0 38.7672 0 42.3713V52.6267C0 56.2305 3.07154 59.3117 7.14467 59.7932L11.3041 60.2853C11.7564 61.5659 12.2787 62.8258 12.8647 64.0508L10.2706 67.3407C7.73081 70.5616 7.73749 74.9123 10.286 77.4608L17.5375 84.7125C20.0856 87.2607 24.4365 87.2677 27.6574 84.7281L30.9472 82.1344C32.1723 82.7205 33.4322 83.2428 34.7127 83.6954L35.2044 87.8548C35.686 91.9283 38.767 95 42.3713 95H52.6267C56.2307 95 59.3117 91.9285 59.7936 87.8551L60.2855 83.6959C61.5669 83.2432 62.8271 82.7209 64.0528 82.1344L67.3426 84.7283C70.5635 87.2673 74.9142 87.261 77.4625 84.7125L84.714 77.461C87.2623 74.9127 87.2692 70.562 84.7294 67.3409L82.1353 64.051C82.7212 62.826 83.2436 61.5661 83.6959 60.2855L87.8551 59.7934C91.9283 59.3115 95 56.2305 95 52.6267V42.3713C95 38.7672 91.9283 35.6862 87.855 35.2049ZM91.2891 52.6267C91.2891 54.3506 89.6255 55.8472 87.4197 56.1081L82.0937 56.7382C81.3707 56.8237 80.7643 57.3245 80.5437 58.0185C79.9531 59.8754 79.1992 61.6938 78.3036 63.4231C77.9683 64.0701 78.0427 64.8535 78.4939 65.4255L81.816 69.6385C83.1914 71.3832 83.3094 73.6181 82.0904 74.837L74.8389 82.0887C73.6198 83.3076 71.3851 83.1898 69.6406 81.8143L65.4275 78.4924C64.8555 78.0414 64.0725 77.9668 63.4251 78.3021C61.6949 79.1985 59.876 79.9525 58.019 80.5431C57.3251 80.7637 56.8243 81.3701 56.7387 82.0934L56.1086 87.4195C55.8476 89.6256 54.3508 91.2892 52.6268 91.2892H42.3715C40.6474 91.2892 39.1506 89.6255 38.8897 87.4193L38.26 82.093C38.1744 81.3699 37.6738 80.7634 36.9799 80.5427C35.1233 79.9521 33.3049 79.1983 31.5751 78.3021C31.3058 78.1625 31.013 78.0941 30.7219 78.0941C30.313 78.0941 29.907 78.229 29.5728 78.4928L25.3598 81.8145C23.6151 83.1901 21.3802 83.3076 20.1615 82.0889L12.91 74.8372C11.6908 73.6181 11.8088 71.3834 13.1844 69.6389L16.5064 65.4257C16.9575 64.8535 17.0321 64.0701 16.6968 63.4233C15.8012 61.6941 15.0475 59.8756 14.4567 58.0187C14.2361 57.3247 13.6297 56.8239 12.9066 56.7384L7.58052 56.1083C5.37455 55.8472 3.71094 54.3506 3.71094 52.6267V42.3713C3.71094 40.6474 5.37474 39.1506 7.58089 38.8897L12.9072 38.26C13.6305 38.1744 14.2368 37.6738 14.4574 36.9799C15.048 35.1233 15.8019 33.3047 16.6979 31.5751C17.0332 30.9283 16.9588 30.1449 16.5075 29.5728L13.1859 25.3598C11.8102 23.6153 11.6924 21.3806 12.9115 20.1615L20.1628 12.9098C21.3817 11.6908 23.6168 11.8086 25.3613 13.1844L29.5743 16.5064C30.1464 16.9575 30.9296 17.0323 31.5766 16.697C33.3055 15.8014 35.1233 15.0479 36.9797 14.4573C37.6736 14.2366 38.1742 13.6303 38.2598 12.907L38.8895 7.58089C39.1506 5.37474 40.6472 3.71094 42.3713 3.71094H52.6267C54.3506 3.71094 55.8474 5.37455 56.1083 7.58052L56.7384 12.9066C56.8239 13.6299 57.3247 14.2363 58.0187 14.4569C59.875 15.0471 61.6936 15.801 63.4233 16.697C64.0697 17.0323 64.8535 16.9579 65.4257 16.5066L69.6387 13.1846C71.3836 11.8093 73.6183 11.6908 74.8372 12.91L82.0889 20.1615C83.3078 21.3806 83.1898 23.6153 81.8145 25.3598L78.4926 29.573C78.0416 30.1452 77.967 30.9284 78.3023 31.5754C79.1979 33.3038 79.9516 35.1222 80.5427 36.9799C80.7634 37.6738 81.3697 38.1746 82.093 38.26L87.4193 38.8897H87.4191C89.6253 39.1506 91.2891 40.6474 91.2891 42.3713V52.6267Z" fill="#969696"/>
<path d="M47.4998 17.4934C30.954 17.4934 17.493 30.9545 17.493 47.5002C17.493 54.1115 19.6012 60.382 23.5901 65.6335C27.4489 70.7142 32.9277 74.499 39.0168 76.2904C40.0004 76.5799 41.0311 76.0171 41.3205 75.0341C41.6098 74.0511 41.0474 73.0196 40.0642 72.7303C28.9598 69.4632 21.2041 59.0882 21.2041 47.5C21.2041 33.0005 33.0002 21.2042 47.5 21.2042C61.9997 21.2042 73.7959 33.0005 73.7959 47.5C73.7959 59.4875 65.7025 69.956 54.1138 72.9576C53.1219 73.2146 52.5259 74.2271 52.7829 75.2191C52.9994 76.0551 53.7526 76.6097 54.5779 76.6097C54.7321 76.6097 54.8885 76.5905 55.0445 76.55C68.2701 73.1244 77.5068 61.1786 77.5068 47.5C77.5068 30.9543 64.0456 17.4934 47.4998 17.4934Z" fill="#969696"/>
<path d="M62.0328 56.2096L49.3555 46.5793V38.2922C49.3555 37.2675 48.5246 36.4368 47.5 36.4368C46.4754 36.4368 45.6445 37.2675 45.6445 38.2922V47.5C45.6445 48.08 45.9158 48.6266 46.3778 48.9773L59.7882 59.1644C60.1239 59.4193 60.518 59.5426 60.9091 59.5426C61.4693 59.5426 62.0229 59.29 62.3879 58.8095C63.0078 57.9934 62.8488 56.8295 62.0328 56.2096Z" fill="#969696"/>
<path d="M47.5 32.2888C48.5247 32.2888 49.3555 31.4581 49.3555 30.4333C49.3555 29.4086 48.5247 28.5779 47.5 28.5779C46.4753 28.5779 45.6445 29.4086 45.6445 30.4333C45.6445 31.4581 46.4753 32.2888 47.5 32.2888Z" fill="#969696"/>
<path d="M46.8246 77.5066C47.8494 77.5066 48.6801 76.6759 48.6801 75.6511C48.6801 74.6264 47.8494 73.7957 46.8246 73.7957C45.7999 73.7957 44.9691 74.6264 44.9691 75.6511C44.9691 76.6759 45.7999 77.5066 46.8246 77.5066Z" fill="#969696"/>
</svg>
