<svg width="95" height="95" viewBox="0 0 95 95" fill="none" xmlns="http://www.w3.org/2000/svg">
<path d="M83.4434 44.502C83.3427 43.1039 82.1294 42.0544 80.7292 42.1528C79.331 42.2535 78.2793 43.4687 78.3798 44.867C78.4424 45.7307 78.4737 46.6169 78.4737 47.5001C78.4737 67.736 62.0109 84.1988 41.7751 84.1988C21.5394 84.1988 5.07656 67.7358 5.07656 47.5001C5.07656 27.2643 21.5394 10.8015 41.7753 10.8015C49.7893 10.8015 57.4002 13.3375 63.7849 18.1352C64.9058 18.9772 66.4967 18.7514 67.3389 17.6309C68.1813 16.5102 67.9554 14.9189 66.8347 14.0769C59.5633 8.61313 50.8979 5.7251 41.7751 5.7251C18.7404 5.72491 0 24.4653 0 47.5001C0 70.5348 18.7404 89.275 41.7753 89.275C64.8102 89.275 83.5503 70.535 83.5503 47.5001C83.5503 46.4955 83.5141 45.4869 83.4434 44.502Z" fill="#252525"/>
<path d="M92.1047 11.4612C88.2439 7.60051 81.9616 7.60051 78.1007 11.4612L41.5276 48.034L28.5627 35.0689C24.7018 31.2082 18.4196 31.2082 14.5587 35.0689C10.6979 38.9297 10.6979 45.212 14.5587 49.0728L36.8876 71.4017C38.167 72.6811 39.8473 73.3206 41.5276 73.3206C43.2081 73.3206 44.8884 72.6811 46.1678 71.4017L92.1047 25.4648C95.9652 21.6041 95.9652 15.3222 92.1047 11.4612ZM88.5151 21.8754L42.578 67.8127C41.9991 68.3916 41.0565 68.3916 40.4776 67.8127L18.1487 45.4836C16.2671 43.602 16.2671 40.5406 18.1487 38.659C19.0894 37.7179 20.325 37.2477 21.5609 37.2477C22.7968 37.2477 24.0326 37.7181 24.9731 38.659L38.3106 51.9965C39.17 52.8558 40.3128 53.3289 41.5278 53.3289C42.7433 53.3289 43.8861 52.8556 44.7454 51.9963L81.6905 15.0508C83.5716 13.1691 86.6335 13.1691 88.5151 15.0508C90.3966 16.9324 90.3966 19.9937 88.5151 21.8754Z" fill="#252525"/>
</svg>
