<svg width="24" height="34" viewBox="0 0 24 34" xmlns="http://www.w3.org/2000/svg">
<path d="M12 0C5.75089 0 0.666626 5.06692 0.666626 11.2947C0.666626 13.1643 1.13565 15.018 2.02729 16.6621L11.3802 33.52C11.5047 33.7448 11.742 33.884 12 33.884C12.258 33.884 12.4952 33.7448 12.6198 33.52L21.9761 16.6566C22.8643 15.018 23.3333 13.1642 23.3333 11.2946C23.3333 5.06692 18.2491 0 12 0ZM12 16.942C8.87543 16.942 6.33334 14.4086 6.33334 11.2947C6.33334 8.18081 8.87543 5.64738 12 5.64738C15.1245 5.64738 17.6666 8.18081 17.6666 11.2947C17.6666 14.4086 15.1245 16.942 12 16.942Z" />
</svg>
