<svg width="18" height="28" viewBox="0 0 18 28" fill="none" xmlns="http://www.w3.org/2000/svg">
<path d="M9 0.82666C4.22128 0.82666 0.333313 4.81875 0.333313 9.72544C0.333313 11.1984 0.691981 12.6589 1.37382 13.9543L8.52606 27.2362C8.62127 27.4132 8.80271 27.5229 9 27.5229C9.19728 27.5229 9.37872 27.4132 9.47394 27.2362L16.6288 13.9499C17.308 12.6589 17.6667 11.1984 17.6667 9.72539C17.6667 4.81875 13.7787 0.82666 9 0.82666ZM9 14.1748C6.61064 14.1748 4.66668 12.1788 4.66668 9.72544C4.66668 7.27209 6.61064 5.27608 9 5.27608C11.3894 5.27608 13.3333 7.27209 13.3333 9.72544C13.3333 12.1788 11.3894 14.1748 9 14.1748Z" fill="#494848"/>
</svg>
