<?xml version="1.0" encoding="UTF-8" standalone="no"?>
<!-- Created with Inkscape (http://www.inkscape.org/) -->

<svg
   xmlns:dc="http://purl.org/dc/elements/1.1/"
   xmlns:cc="http://creativecommons.org/ns#"
   xmlns:rdf="http://www.w3.org/1999/02/22-rdf-syntax-ns#"
   xmlns:svg="http://www.w3.org/2000/svg"
   xmlns="http://www.w3.org/2000/svg"
   xmlns:sodipodi="http://sodipodi.sourceforge.net/DTD/sodipodi-0.dtd"
   xmlns:inkscape="http://www.inkscape.org/namespaces/inkscape"
   version="1.1"
   id="svg80"
   width="24"
   height="38.000004"
   viewBox="0 0 24 38.000004"
   sodipodi:docname="marker.svg"
   inkscape:version="0.92.4 (unknown)">
  <path
     style="fill:#FE6B41;stroke-width:0.1299936"
     d="m 11.695661,37.853161 c -0.08477,-0.0868 -0.154125,-0.23916 -0.154125,-0.3385 0,-0.0993 -0.111086,-0.66476 -0.246857,-1.25648 -0.135771,-0.59172 -0.340365,-1.5199 -0.454653,-2.06262 -0.395297,-1.87715 -0.722419,-3.35795 -0.9010053,-4.07862 -0.2704543,-1.0914 -0.5965756,-2.50166 -0.7149843,-3.09185 -0.2913335,-1.4521 -0.7208326,-2.87866 -0.8934443,-2.96753 -0.1059612,-0.0546 -0.7577919,-0.36952 -1.4485123,-0.69992 -1.6147971,-0.77243 -2.4912607,-1.44481 -3.9296845,-3.01466 -1.1933683,-1.3024 -2.3341126,-3.58007 -2.58384766,-5.15904 -0.0572248,-0.36181 -0.1743196,-0.93858 -0.26020883,-1.2817 -0.28419267,-1.13534 0.019336,-4.1619495 0.57737084,-5.7571995 0.32412855,-0.92659 1.07192345,-2.36988 1.60563735,-3.09899 1.3934221,-1.90355 3.72826,-3.6911 5.6539318,-4.32864001 2.0947572,-0.69353 4.5252392,-0.91249 5.9081372,-0.53225 0.388525,0.10682 0.879799,0.19529 1.091722,0.1966 0.211922,0.001 0.550861,0.0908 0.753199,0.19891 0.202336,0.1081 0.433524,0.19667 0.51375,0.19683 0.302332,5.8e-4 2.349206,1.20429001 3.035716,1.78521001 0.75985,0.64299 2.427977,2.50538 2.878291,3.21349 0.563045,0.88539 1.231718,2.32673 1.231718,2.65501 0,0.10311 0.05186,0.24372 0.11524,0.31246 C 23.627952,8.9116815 24,11.402501 24,12.271541 c 0,0.8174 -0.34466,3.29131 -0.503139,3.61145 -0.06042,0.12206 -0.266251,0.63637 -0.457395,1.14291 -0.601965,1.59522 -1.914779,3.33159 -3.663226,4.84512 -0.716541,0.62027 -2.311971,1.59805 -3.082506,1.88916 -0.767841,0.2901 -0.867904,0.38055 -0.965599,0.87288 -0.04567,0.23018 -0.160431,0.71453 -0.255012,1.07634 -0.09458,0.36182 -0.294882,1.1611 -0.44511,1.77618 -0.150229,0.61508 -0.352314,1.41436 -0.449081,1.77617 -0.09676,0.36181 -0.213661,0.86506 -0.25977,1.11833 -0.04611,0.25327 -0.158628,0.72691 -0.250045,1.05255 -0.09142,0.32563 -0.268469,1.0657 -0.393451,1.6446 -0.124981,0.5789 -0.367674,1.615 -0.539318,2.30244 -0.692533,2.77362 -0.709146,2.81311 -1.040687,2.47349 z"
     id="path90"
     inkscape:connector-curvature="0" />
</svg>
