<svg width="30" height="30" viewBox="0 0 30 30" fill="none" xmlns="http://www.w3.org/2000/svg">
<g clip-path="url(#clip0)">
<path d="M25 28.625C24.875 28.625 24.75 28.625 24.625 28.625C20.625 28.125 16.625 26.75 13.25 24.625C10.125 22.625 7.375 19.875 5.375 16.75C3.125 13.375 1.75 9.375 1.375 5.375C1.375 4.375 1.625 3.375 2.25 2.625C2.875 1.875 3.75 1.375 4.75 1.25C4.875 1.25 5 1.25 5.125 1.25H8.875C10.75 1.25 12.375 2.625 12.625 4.5C12.75 5.625 13 6.75 13.375 7.75C13.875 9.125 13.5 10.625 12.5 11.75L11.625 12.625C13.125 14.875 15 16.875 17.375 18.375L18.25 17.5C19.25 16.5 20.875 16.125 22.25 16.625C23.25 17 24.375 17.25 25.5 17.375C27.375 17.625 28.75 19.25 28.75 21.125V24.875C28.75 25.875 28.375 26.875 27.625 27.5C26.875 28.125 26 28.625 25 28.625ZM8.875 3.75H5.125C4.75 3.75 4.375 4 4.125 4.25C4 4.5 3.875 4.75 3.875 5.125C4.25 8.75 5.5 12.25 7.5 15.375C9.375 18.25 11.75 20.75 14.625 22.5C17.75 24.5 21.25 25.75 24.875 26.125C25.375 26.125 25.625 26 25.875 25.75C26.125 25.5 26.25 25.25 26.25 24.875V21.125C26.25 20.5 25.75 20 25.125 19.875C23.875 19.75 22.625 19.375 21.375 18.875C20.875 18.75 20.375 18.75 20 19.125L18.375 20.75C18 21.125 17.375 21.25 16.875 21C13.5 19.125 10.75 16.375 8.875 13C8.75 12.5 8.875 11.875 9.25 11.5L10.875 9.875C11.125 9.625 11.25 9 11.125 8.625C10.625 7.375 10.375 6.125 10.125 4.875C10.125 4.25 9.5 3.75 8.875 3.75ZM23.75 12.5C23.125 12.5 22.625 12.125 22.5 11.5C22.125 9.5 20.5 8 18.5 7.5C17.875 7.375 17.375 6.75 17.5 6C17.625 5.375 18.25 4.875 19 5C22 5.625 24.375 7.875 24.875 10.875C25 11.5 24.625 12.25 23.875 12.375C23.875 12.375 23.875 12.5 23.75 12.5ZM28.75 12.375C28.125 12.375 27.625 11.875 27.5 11.25C27 6.625 23.375 3 18.625 2.375C18 2.25 17.5 1.625 17.5 1C17.5 0.375 18.25 -0.125 18.875 -0.125C24.75 0.5 29.25 5 29.875 10.875C30 11.5 29.5 12.125 28.75 12.25C28.875 12.375 28.75 12.375 28.75 12.375Z" fill="#C4C4C4"/>
</g>
<defs>
<clipPath id="clip0">
<rect width="30" height="30" fill="white"/>
</clipPath>
</defs>
</svg>
