<svg viewBox="0 0 107 108" xmlns="http://www.w3.org/2000/svg">
<g clip-path="url(#clip0)">
<path d="M10.7 19.8H21.4C22.3849 19.8 23.1833 18.9941 23.1833 18C23.1833 17.0058 22.3849 16.2 21.4 16.2H10.7C9.71508 16.2 8.91666 17.0058 8.91666 18C8.91666 18.9941 9.71508 19.8 10.7 19.8Z" fill="#737373"/>
<path d="M30.3167 19.8H46.3667C47.3516 19.8 48.15 18.9941 48.15 18C48.15 17.0058 47.3516 16.2 46.3667 16.2H30.3167C29.3318 16.2 28.5333 17.0058 28.5333 18C28.5333 18.9941 29.3318 19.8 30.3167 19.8Z" fill="#737373"/>
<path d="M10.7 39.6H67.7667C68.7516 39.6 69.55 38.7941 69.55 37.8C69.55 36.8059 68.7516 36 67.7667 36H10.7C9.71508 36 8.91666 36.8059 8.91666 37.8C8.91666 38.7941 9.71508 39.6 10.7 39.6Z" fill="#737373"/>
<path d="M10.7 46.7999H35.6667C36.6516 46.7999 37.45 45.9941 37.45 45C37.45 44.0058 36.6516 43.2 35.6667 43.2H10.7C9.71508 43.2 8.91666 44.0058 8.91666 45C8.91666 45.9941 9.71508 46.7999 10.7 46.7999Z" fill="#737373"/>
<path d="M10.7 61.2H35.6667C36.6516 61.2 37.45 60.3941 37.45 59.4C37.45 58.4059 36.6516 57.6 35.6667 57.6H10.7C9.71508 57.6 8.91666 58.4059 8.91666 59.4C8.91666 60.3941 9.71508 61.2 10.7 61.2Z" fill="#737373"/>
<path d="M10.7 75.6H35.6667C36.6516 75.6 37.45 74.7941 37.45 73.8C37.45 72.8059 36.6516 72 35.6667 72H10.7C9.71508 72 8.91666 72.8059 8.91666 73.8C8.91666 74.7941 9.71508 75.6 10.7 75.6Z" fill="#737373"/>
<path d="M10.7 90H35.6667C36.6516 90 37.45 89.1941 37.45 88.2C37.45 87.2059 36.6516 86.4 35.6667 86.4H10.7C9.71508 86.4 8.91666 87.2059 8.91666 88.2C8.91666 89.1941 9.71508 90 10.7 90Z" fill="#737373"/>
<path d="M105.93 52.434L85.6 43.5726V5.4C85.6 2.41766 83.2047 0 80.25 0H12.4833C9.52861 0 7.13333 2.41766 7.13333 5.4V7.2H5.35C2.39528 7.2 0 9.61766 0 12.6V102.6C0 105.582 2.39528 108 5.35 108H73.1167C74.5594 107.997 75.9394 107.404 76.9419 106.357L78.4043 107.406C79.5096 108.198 80.9903 108.198 82.0957 107.406L99.3495 95.0094C104.132 91.583 106.982 86.0362 107 80.1162V54.0864C107.001 53.3697 106.581 52.7207 105.93 52.434ZM10.7 5.4C10.7 4.40589 11.4984 3.6 12.4833 3.6H80.25C81.2349 3.6 82.0333 4.40589 82.0333 5.4V42.0174L80.9633 41.5476C80.5126 41.3514 80.0017 41.3514 79.5509 41.5476L78.4809 42.0174V30.6C78.4809 30.5604 78.4613 30.5226 78.4577 30.483C78.4489 30.3322 78.4201 30.1833 78.3721 30.0402C78.3597 29.9988 78.3615 29.9556 78.3454 29.916C78.3293 29.8764 78.3169 29.8764 78.3079 29.8548C78.2212 29.659 78.1004 29.4803 77.9513 29.3274L56.5513 7.7274C56.3998 7.57693 56.2228 7.45501 56.0288 7.3674C56.0056 7.3566 55.9895 7.3386 55.9681 7.3296C55.9467 7.3206 55.8861 7.3152 55.8469 7.3026C55.7032 7.25429 55.5539 7.22465 55.4028 7.2144C55.3582 7.2198 55.3226 7.2 55.2833 7.2H10.7V5.4ZM57.0667 13.3452L72.3784 28.8H58.85C57.8651 28.8 57.0667 27.9941 57.0667 27V13.3452ZM73.1167 104.4H5.35C4.36509 104.4 3.56667 103.594 3.56667 102.6V12.6C3.56667 11.6059 4.36509 10.8 5.35 10.8H53.5V27C53.5 29.9823 55.8953 32.4 58.85 32.4H74.9V43.5726L69.1594 46.08C69.4058 45.7743 69.5434 45.394 69.55 45C69.55 44.0059 68.7516 43.2 67.7667 43.2H42.8C41.8151 43.2 41.0167 44.0059 41.0167 45C41.0167 45.9941 41.8151 46.8 42.8 46.8H67.4974L59.2406 50.4H10.7C9.71509 50.4 8.91667 51.2059 8.91667 52.2C8.91667 53.1941 9.71509 54 10.7 54H53.5125C53.5125 54.0288 53.5 54.0558 53.5 54.0864V57.6H42.8C41.8151 57.6 41.0167 58.4059 41.0167 59.4C41.0167 60.3941 41.8151 61.2 42.8 61.2H53.5V64.8H10.7C9.71509 64.8 8.91667 65.6059 8.91667 66.6C8.91667 67.5941 9.71509 68.4 10.7 68.4H53.5V72H42.8C41.8151 72 41.0167 72.8059 41.0167 73.8C41.0167 74.7941 41.8151 75.6 42.8 75.6H53.5V79.2H10.7C9.71509 79.2 8.91667 80.0059 8.91667 81C8.91667 81.9941 9.71509 82.8 10.7 82.8H53.7229C53.9002 84.0281 54.2026 85.2345 54.6253 86.4H42.8C41.8151 86.4 41.0167 87.2059 41.0167 88.2C41.0167 89.1941 41.8151 90 42.8 90H56.4264C57.2692 91.3244 58.2767 92.5342 59.4242 93.6H10.7C9.71509 93.6 8.91667 94.4059 8.91667 95.4C8.91667 96.3941 9.71509 97.2 10.7 97.2H64.2L73.9156 104.18C73.6707 104.317 73.3966 104.393 73.1167 104.4ZM103.433 80.1162C103.416 84.871 101.125 89.3249 97.2826 92.0754L80.25 104.314L63.2174 92.0736C59.3752 89.3235 57.0846 84.8704 57.0667 80.1162V55.2762L60.2945 53.8686L60.3284 53.8542L80.25 45.1602L103.433 55.269V80.1162Z" fill="#737373"/>
<path d="M79.5367 49.3901L61.7033 57.1661C61.0526 57.4528 60.6323 58.1018 60.6333 58.8185V80.1161C60.6495 83.7059 62.3816 87.067 65.2843 89.1413L79.2157 99.1511C79.8348 99.5961 80.6652 99.5961 81.2843 99.1511L95.2157 89.1413C98.1179 87.0666 99.8499 83.7057 99.8667 80.1161V58.8185C99.8677 58.1018 99.4474 57.4528 98.7967 57.1661L80.9633 49.3901C80.5085 49.1898 79.9915 49.1898 79.5367 49.3901ZM96.3 60.0101V80.1161C96.287 82.5456 95.1119 84.8191 93.1453 86.2199L80.25 95.4755L67.3547 86.2091C65.3904 84.8111 64.2156 82.542 64.2 80.1161V60.0011L80.25 53.0045L96.3 60.0101Z" fill="#737373"/>
<path d="M70.62 75.96C70.1103 75.5741 69.4354 75.4921 68.8495 75.7447C68.2636 75.9973 67.8557 76.5462 67.7795 77.1847C67.7033 77.8231 67.9703 78.4541 68.48 78.84L75.6133 84.24C76.3838 84.8236 77.4742 84.6841 78.0761 83.925L92.3428 65.925C92.9583 65.1486 92.8338 64.0155 92.0646 63.3942C91.2954 62.7729 90.1728 62.8986 89.5572 63.675L76.3712 80.3142L70.62 75.96Z" fill="#737373"/>
</g>
<defs>
<clipPath id="clip0">
<rect width="107" height="108" fill="white"/>
</clipPath>
</defs>
</svg>
