<svg viewBox="0 0 118 109" fill="none" xmlns="http://www.w3.org/2000/svg">
<path d="M72.8438 95.965V97.4612C72.8438 98.2731 73.5211 98.8158 74.1984 98.8158C74.845 98.8158 75.317 98.4689 75.4822 97.9167L74.9819 97.5603L72.8438 95.965Z" fill="#737373"/>
<path d="M14.2025 53.8554C15.0143 53.8554 15.5571 53.3126 15.5571 52.5007V46.8131C15.5571 46.0013 15.0143 45.4585 14.2025 45.4585C13.3907 45.4585 12.8479 46.0013 12.8479 46.8131V52.5007C12.8479 53.1781 13.3907 53.8554 14.2025 53.8554Z" fill="#737373"/>
<path d="M14.2025 68.8886C15.0143 68.8886 15.5571 68.3458 15.5571 67.5339V61.8463C15.5571 61.0345 15.0143 60.4917 14.2025 60.4917C13.3907 60.4917 12.8479 61.0345 12.8479 61.8463V67.5339C12.8479 68.2113 13.3907 68.8886 14.2025 68.8886Z" fill="#737373"/>
<path d="M23.5481 53.8554C24.3599 53.8554 24.9027 53.3126 24.9027 52.5007V46.8131C24.9027 46.0013 24.3599 45.4585 23.5481 45.4585C22.7363 45.4585 22.1935 46.0013 22.1935 46.8131V52.5007C22.1935 53.1781 22.7339 53.8554 23.5481 53.8554Z" fill="#737373"/>
<path d="M32.8913 53.8554C33.7032 53.8554 34.246 53.3126 34.246 52.5007V46.8131C34.246 46.0013 33.7032 45.4585 32.8913 45.4585C32.0795 45.4585 31.5367 46.0013 31.5367 46.8131V52.5007C31.5367 53.1781 32.214 53.8554 32.8913 53.8554Z" fill="#737373"/>
<path d="M14.2025 38.959C15.0143 38.959 15.5571 38.4162 15.5571 37.6044V31.9168C15.5571 31.1049 15.0143 30.5621 14.2025 30.5621C13.3907 30.5621 12.8479 31.1049 12.8479 31.9168V37.6044C12.8479 38.2817 13.3907 38.959 14.2025 38.959Z" fill="#737373"/>
<path d="M23.5481 38.959C24.3599 38.959 24.9027 38.4162 24.9027 37.6044V31.9168C24.9027 31.1049 24.3599 30.5621 23.5481 30.5621C22.7363 30.5621 22.1935 31.1049 22.1935 31.9168V37.6044C22.1935 38.2817 22.7339 38.959 23.5481 38.959Z" fill="#737373"/>
<path d="M32.8913 38.959C33.7032 38.959 34.246 38.4162 34.246 37.6044V31.9168C34.246 31.1049 33.7032 30.5621 32.8913 30.5621C32.0795 30.5621 31.5367 31.1049 31.5367 31.9168V37.6044C31.5367 38.2817 32.214 38.959 32.8913 38.959Z" fill="#737373"/>
<path d="M58.082 45.4585C57.2701 45.4585 56.7273 46.0013 56.7273 46.8131V52.5007C56.7273 53.3126 57.2701 53.8554 58.082 53.8554C58.8938 53.8554 59.4366 53.3126 59.4366 52.5007V46.8131C59.4366 46.0013 58.7593 45.4585 58.082 45.4585Z" fill="#737373"/>
<path d="M58.082 30.5621C57.2701 30.5621 56.7273 31.1049 56.7273 31.9168V37.6044C56.7273 38.4162 57.2701 38.959 58.082 38.959C58.8938 38.959 59.4366 38.4162 59.4366 37.6044V31.9168C59.4366 31.1026 58.7593 30.5621 58.082 30.5621Z" fill="#737373"/>
<path d="M58.082 60.4917C57.2701 60.4917 56.7273 61.0345 56.7273 61.8463V67.5339C56.7273 68.3458 57.2701 68.8886 58.082 68.8886C58.8938 68.8886 59.4366 68.3458 59.4366 67.5339V61.8463C59.4366 61.0321 58.7593 60.4917 58.082 60.4917Z" fill="#737373"/>
<path d="M58.082 75.3881C57.2701 75.3881 56.7273 75.9309 56.7273 76.7427V82.4303C56.7273 83.2421 57.2701 83.7849 58.082 83.7849C58.8938 83.7849 59.4366 83.2421 59.4366 82.4303V76.7427C59.4366 76.0654 58.7593 75.3881 58.082 75.3881Z" fill="#737373"/>
<path d="M49.5506 45.4585C48.7387 45.4585 48.1959 46.0013 48.1959 46.8131V52.5007C48.1959 53.3126 48.7387 53.8554 49.5506 53.8554C50.3624 53.8554 50.9052 53.3126 50.9052 52.5007V46.8131C50.9029 46.0013 50.2279 45.4585 49.5506 45.4585Z" fill="#737373"/>
<path d="M49.5506 30.5621C48.7387 30.5621 48.1959 31.1049 48.1959 31.9168V37.6044C48.1959 38.4162 48.7387 38.959 49.5506 38.959C50.3624 38.959 50.9052 38.4162 50.9052 37.6044V31.9168C50.9029 31.1026 50.2279 30.5621 49.5506 30.5621Z" fill="#737373"/>
<path d="M58.082 15.5291C57.2701 15.5291 56.7273 16.0719 56.7273 16.8837V22.5713C56.7273 23.3831 57.2701 23.9259 58.082 23.9259C58.8938 23.9259 59.4366 23.3831 59.4366 22.5713V16.8837C59.4366 16.2064 58.7593 15.5291 58.082 15.5291Z" fill="#737373"/>
<path d="M49.5506 15.5291C48.7387 15.5291 48.1959 16.0719 48.1959 16.8837V22.5713C48.1959 23.3831 48.7387 23.9259 49.5506 23.9259C50.3624 23.9259 50.9052 23.3831 50.9052 22.5713V16.8837C50.9029 16.2064 50.2279 15.5291 49.5506 15.5291Z" fill="#737373"/>
<path d="M49.5506 60.4917C48.7387 60.4917 48.1959 61.0345 48.1959 61.8463V67.5339C48.1959 68.3458 48.7387 68.8886 49.5506 68.8886C50.3624 68.8886 50.9052 68.3458 50.9052 67.5339V61.8463C50.9029 61.0321 50.2279 60.4917 49.5506 60.4917Z" fill="#737373"/>
<path d="M49.5506 75.3881C48.7387 75.3881 48.1959 75.9309 48.1959 76.7427V82.4303C48.1959 83.2421 48.7387 83.7849 49.5506 83.7849C50.3624 83.7849 50.9052 83.2421 50.9052 82.4303V76.7427C50.9029 76.0654 50.2279 75.3881 49.5506 75.3881Z" fill="#737373"/>
<path d="M99.3749 104.763H96.8945L92.8377 107.652C91.7356 108.435 90.2582 108.435 89.1537 107.652L87.6952 106.613L85.0993 104.763H67.9822V91.5234C67.7202 91.1717 67.4653 90.8154 67.2293 90.4448C67.2293 90.4448 66.1532 88.951 65.4334 86.886C65.0393 85.8098 64.7537 84.6959 64.5743 83.5631V104.763H59.7245V91.7735C59.7245 90.7304 58.9953 90.0012 57.9522 90.0012H48.6066C47.5634 90.0012 46.8342 90.7304 46.8342 91.7735V104.763H42.7962V25.1578H43.8677C44.9108 25.1578 45.64 24.4286 45.64 23.3854V14.3112C45.64 13.2681 44.9108 12.5389 43.8677 12.5389H39.0037V11.6161H64.5696V33.8025H63.4982C62.455 33.8025 61.7258 34.5317 61.7258 35.5748C61.7258 36.618 62.455 37.3472 63.4982 37.3472H64.5696V40.8424H63.4982C62.455 40.8424 61.7258 41.5716 61.7258 42.6147V51.6889C61.7258 52.732 62.455 53.4613 63.4982 53.4613H64.5696V54.0182C64.7561 53.7114 65.0322 53.4613 65.3744 53.3126L69.8678 51.3727V51.4057L70.0354 51.3019L73.5612 49.7797H65.136V44.2526H86.3666L89.2316 43.0159L90.2983 42.551C90.7491 42.3575 91.2589 42.3575 91.7072 42.551L92.774 43.0159L95.6343 44.2526H102.082V47.0374L105.629 48.569V42.4802C105.629 41.4371 104.9 40.7078 103.857 40.7078H102.651V37.2127H103.857C104.9 37.2127 105.629 36.4834 105.629 35.4403C105.629 34.3972 104.9 33.668 103.857 33.668H67.9798V11.4792H69.0512C70.0944 11.4792 70.8236 10.75 70.8236 9.70689V2.25637C70.8236 1.21325 70.0944 0.484009 69.0512 0.484009H34.9233C33.8802 0.484009 33.1509 1.21325 33.1509 2.25637V9.70453C33.1509 10.7476 33.8802 11.4769 34.9233 11.4769H35.3174V12.3996H26.6751V8.62129C26.6751 7.57817 25.9458 6.84893 24.9027 6.84893H16.2345C15.1913 6.84893 14.4621 7.57817 14.4621 8.62129V12.402H3.37009C2.32697 12.402 1.59773 13.1312 1.59773 14.1744V23.2486C1.59773 24.2917 2.32697 25.0209 3.37009 25.0209H4.30465V104.763H2.14997C1.10685 104.763 0.377609 105.492 0.377609 106.535C0.377609 107.578 1.10685 108.308 2.14997 108.308H105.483C106.526 108.308 107.255 107.578 107.255 106.535C107.255 105.492 106.526 104.763 105.483 104.763H102.787V100.569L99.3773 102.998V104.763H99.3749ZM95.6083 37.3448H99.1035V40.84H95.6083V37.3448ZM88.8351 37.3448H92.1958V40.84H88.8351V37.3448ZM81.9298 37.3448H85.2904V40.84H81.9298V37.3448ZM75.1589 37.3448H78.5196V40.84H75.1589V37.3448ZM68.1167 37.3448H71.6118V40.84H68.1167V37.3448ZM36.6956 4.03109H67.2765V7.93453H36.6956V4.03109ZM18.0068 10.396H23.128V12.402H18.0068V10.396ZM16.7749 95.6911C15.6421 95.6911 14.7571 94.8038 14.7571 93.6733V88.7952C14.7571 87.6624 15.6445 86.775 16.7749 86.775H17.5867C18.7195 86.775 19.6045 87.6624 19.6045 88.7952V93.671C19.6045 94.8038 18.7172 95.6888 17.5867 95.6888H16.7749V95.6911ZM30.8617 98.1266C29.474 98.1266 28.3011 96.9537 28.3011 95.566V92.3163C28.3011 90.9286 29.474 89.7557 30.8617 89.7557C32.2494 89.7557 33.4223 90.9286 33.4223 92.3163V95.5495C33.2972 97.093 32.2683 98.1266 30.8617 98.1266ZM39.2444 104.763H32.6341V101.428C35.2018 100.581 36.967 98.2682 36.967 95.7006V92.4532C36.967 89.0855 34.2271 86.3479 30.8594 86.3479C27.4916 86.3479 24.7517 89.0878 24.7517 92.4532V95.7029C24.7517 98.3933 26.5547 100.756 29.0847 101.45V104.765H18.9555V99.0258C21.3722 98.4523 23.154 96.2103 23.154 93.6733V88.7952C23.154 85.7272 20.6571 83.2303 17.5891 83.2303H16.7772C13.7092 83.2303 11.2124 85.7272 11.2124 88.7952V93.671C11.2124 96.2292 12.9588 98.4264 15.4108 99.0211V104.763H7.84937V81.3588H39.2444V104.763ZM7.84937 77.8141V73.7762H11.0755V77.8141H7.84937ZM14.6226 77.8141V73.7762H18.1177V77.8141H14.6226ZM21.6648 77.8141V73.7762H25.16V77.8141H21.6648ZM26.2692 70.2291V62.3986H32.2022V70.2291H26.2692ZM32.2022 73.7762V77.8141H28.7071V73.7762H32.2022ZM39.2444 77.8141H35.7493V73.7762H39.2444V77.8141ZM39.2444 70.2291H35.7493V60.6262C35.7493 59.5831 35.0201 58.8539 33.9769 58.8539H24.4968C23.4537 58.8539 22.7244 59.5831 22.7244 60.6262V70.2291H7.84937V25.0209H39.2444V70.2291ZM42.0882 21.6107H5.14245V16.0836H42.0882V21.6107ZM56.1727 104.763H50.3742V93.5482H56.1727V104.763Z" fill="#737373"/>
<path d="M67.8642 80.6767C67.8665 81.2714 67.9066 81.8614 67.9798 82.4444V56.0737L67.8642 56.1233V80.6767Z" fill="#737373"/>
<path d="M90.9945 95.8587L85.0166 91.6037C85.0214 91.6603 85.0308 91.7169 85.0308 91.7759V95.9815L89.9632 99.4931C90.5815 99.9321 91.4099 99.9321 92.0282 99.4931L99.3749 94.2634V89.9021L90.9945 95.8587Z" fill="#737373"/>
<path d="M107.009 60.8032V80.6768C106.995 83.0793 105.825 85.326 103.861 86.7113L102.785 87.476V91.8349L105.926 89.5976C108.822 87.5468 110.549 84.2239 110.566 80.6768V59.6256C110.566 58.9176 110.148 58.2757 109.499 57.9925L102.785 55.092V58.9766L107.009 60.8032Z" fill="#737373"/>
<path d="M71.423 59.6233V80.6745C71.4396 84.2239 73.1671 87.5445 76.0628 89.5953L82.3215 94.051V91.7736C82.3215 91.0609 82.7392 90.5558 83.3906 90.4425L78.1278 86.6972C76.8487 85.7957 75.907 84.5237 75.402 83.0841C75.1896 83.5183 74.7601 83.7826 74.196 83.7826C73.5187 83.7826 72.8414 83.2398 72.8414 82.428V76.7404C72.8414 75.9285 73.3842 75.3857 74.196 75.3857C74.5005 75.3857 74.7671 75.4613 74.9795 75.6005V68.6715C74.7648 68.8084 74.4981 68.8863 74.196 68.8863C73.5187 68.8863 72.8414 68.209 72.8414 67.5317V61.8441C72.8414 61.0322 73.3842 60.4894 74.196 60.4894C74.5382 60.4894 74.8261 60.5885 75.0527 60.7608L90.9945 53.8767L99.3749 57.4993V53.6147L98.7023 53.3245H83.2915L72.4921 57.9902C71.8431 58.2734 71.423 58.9153 71.423 59.6233Z" fill="#737373"/>
<path d="M75.0527 60.7631C74.8262 60.5932 74.5383 60.4917 74.196 60.4917C73.3842 60.4917 72.8414 61.0345 72.8414 61.8463V67.5339C72.8414 68.2113 73.5187 68.8886 74.196 68.8886C74.5005 68.8886 74.7672 68.8131 74.9796 68.6738V60.7938L75.0527 60.7631Z" fill="#737373"/>
<path d="M74.9819 75.6028C74.7672 75.4659 74.5005 75.3881 74.1984 75.3881C73.3866 75.3881 72.8438 75.9309 72.8438 76.7427V82.4303C72.8438 83.2421 73.5211 83.7849 74.1984 83.7849C74.7648 83.7849 75.192 83.5183 75.4044 83.0864C75.1353 82.3217 74.989 81.5099 74.9819 80.6768V75.6028Z" fill="#737373"/>
<path d="M85.0166 91.6037L83.3906 90.4473C82.7393 90.5605 82.3215 91.0632 82.3215 91.7783V94.0557L85.0308 95.9838V91.7783C85.0308 91.7146 85.0237 91.6603 85.0166 91.6037Z" fill="#737373"/>
<path d="M91.7072 50.3036C91.2541 50.1053 90.7373 50.1053 90.2842 50.3036L83.2891 53.3244H98.6999L91.7072 50.3036Z" fill="#737373"/>
<path d="M99.3749 89.8997V94.261L102.785 91.8326V87.4736L99.3749 89.8997Z" fill="#737373"/>
<path d="M102.785 58.9765V55.0896L99.3749 53.6169V57.5015L102.785 58.9765Z" fill="#737373"/>
<path d="M87.1265 80.8727L85.0332 79.3033V82.4326C85.0332 82.8574 84.8821 83.2067 84.6225 83.4451L86.3689 84.7549C87.1383 85.3307 88.2262 85.1938 88.8257 84.4434L91.6671 80.8916V76.745C91.6671 75.9332 92.2099 75.3904 93.0218 75.3904C93.8336 75.3904 94.3764 75.9332 94.3764 76.745V77.5073L99.3749 71.2604V65.5634L87.1265 80.8727Z" fill="#737373"/>
<path d="M103.061 66.6489C103.675 65.8819 103.552 64.7633 102.785 64.1497V66.9935L103.061 66.6489Z" fill="#737373"/>
<path d="M81.387 76.5681C80.8796 76.1858 80.2046 76.1055 79.6193 76.3557C79.0341 76.6058 78.6281 77.1486 78.5526 77.7787C78.4771 78.4089 78.7438 79.0343 79.2512 79.4142L82.3215 81.7176V77.269L81.387 76.5681Z" fill="#737373"/>
<path d="M85.0308 82.4303V79.3009L82.3215 77.2689V81.7175L84.6202 83.4427C84.8798 83.2043 85.0308 82.8551 85.0308 82.4303Z" fill="#737373"/>
<path d="M93.0218 75.3881C92.2099 75.3881 91.6671 75.9309 91.6671 76.7427V80.8892L94.3764 77.5026V76.7403C94.3764 75.9309 93.8336 75.3881 93.0218 75.3881Z" fill="#737373"/>
<path d="M102.785 64.1497L102.783 64.1473C102.016 63.5337 100.895 63.6564 100.281 64.4258L99.3749 65.5586V71.2556L102.785 66.9911V64.1497Z" fill="#737373"/>
<path d="M116.617 53.3126L112.124 51.3727L105.629 48.569V51.5544C105.629 51.8564 105.565 52.1326 105.454 52.3709L112.124 55.2525L114.125 56.1162V60.5601V80.6768C114.108 85.3779 111.822 89.7793 107.989 92.498L102.785 96.2032V100.572L110.052 95.4008C114.823 92.0142 117.667 86.5319 117.684 80.6791V60.5625V54.9481C117.686 54.2377 117.266 53.5958 116.617 53.3126Z" fill="#737373"/>
<path d="M67.9798 56.0738L71.0855 54.731L71.1186 54.7168L74.3376 53.3268H67.9798V56.0738Z" fill="#737373"/>
<path d="M70.2171 94.0038L72.8438 95.9649V91.7736C72.8438 91.7099 72.8532 91.6485 72.8603 91.5871C70.1652 89.2389 68.4282 85.9821 67.9822 82.4421V91.5211C68.6501 92.4155 69.3958 93.2486 70.2171 94.0038Z" fill="#737373"/>
<path d="M75.5531 93.6001V97.4634C75.5531 97.6286 75.5247 97.7797 75.4823 97.9189L84.6768 104.463L85.0993 104.763H86.1282H91.3863H94.9334H96.8969L99.3773 102.998V98.6293L90.9969 104.593L75.5531 93.6001Z" fill="#737373"/>
<path d="M72.8438 95.9648L74.9819 97.5625L75.4822 97.9189C75.5247 97.7796 75.553 97.6286 75.553 97.4634V93.6001L74.0025 92.4956C73.6037 92.2124 73.2237 91.908 72.8603 91.5894C72.8532 91.6507 72.8438 91.7097 72.8438 91.7758V95.9648Z" fill="#737373"/>
<path d="M90.9945 46.1242L99.4575 49.7798H102.082V47.0375L96.3328 44.5548L95.6343 44.2527H86.3665L82.6684 45.848L79.9285 47.0328C79.9308 47.0304 79.9308 47.028 79.9332 47.028L78.2718 47.7455L73.5588 49.7798H82.5386L90.9945 46.1242Z" fill="#737373"/>
<path d="M64.3076 54.9458V58.4197V60.5602V61.9786V65.5375V69.0964V72.6552V76.2141V79.773C64.3076 81.6846 64.5295 83.3319 64.5295 83.3319C64.5413 83.4097 64.5578 83.4876 64.5696 83.5679V54.0183C64.402 54.2944 64.3053 54.6107 64.3076 54.9458Z" fill="#737373"/>
<path d="M99.3749 98.6294V102.998L102.785 100.569V96.2009L99.3749 98.6294Z" fill="#737373"/>
<path d="M102.084 49.7797H99.4599L105.454 52.3686C105.568 52.1303 105.629 51.8542 105.629 51.5521V48.5667L102.082 47.035V49.7797H102.084Z" fill="#737373"/>
<path d="M91.3839 104.763H86.1259H85.0969L87.6929 106.613L89.1514 107.652C90.2535 108.435 91.7309 108.435 92.8353 107.652L96.8922 104.763H94.9287H91.3839Z" fill="#737373"/>
<path d="M67.8642 80.6768V56.1233L67.9798 56.0738V53.3267H74.3353L82.5363 49.7797H73.5565L70.0306 51.3019L69.8631 51.4057V51.3727L65.3696 53.3126C65.0274 53.4613 64.7513 53.7114 64.5649 54.0182V83.5631C64.7466 84.6959 65.0298 85.8098 65.4239 86.8859C66.1461 88.9486 67.2199 90.4448 67.2199 90.4448C67.4582 90.8153 67.7108 91.1717 67.9727 91.5233V82.4444C67.9066 81.8615 67.8665 81.2715 67.8642 80.6768Z" fill="#737373"/>
<path d="M92.774 43.0159L91.7073 42.551C91.2565 42.3575 90.7467 42.3575 90.2983 42.551L89.2316 43.0159L86.3666 44.2526H95.6343L92.774 43.0159Z" fill="#737373"/>
</svg>
