<?xml version="1.0" encoding="UTF-8" standalone="no"?>
<!-- Created with Inkscape (http://www.inkscape.org/) -->

<svg
   xmlns:dc="http://purl.org/dc/elements/1.1/"
   xmlns:cc="http://creativecommons.org/ns#"
   xmlns:rdf="http://www.w3.org/1999/02/22-rdf-syntax-ns#"
   xmlns:svg="http://www.w3.org/2000/svg"
   xmlns="http://www.w3.org/2000/svg"
   xmlns:sodipodi="http://sodipodi.sourceforge.net/DTD/sodipodi-0.dtd"
   xmlns:inkscape="http://www.inkscape.org/namespaces/inkscape"
   version="1.1"
   id="svg55"
   width="25.488474"
   height="76.195236"
   viewBox="0 0 25.488474 76.195236"
   sodipodi:docname="scrolldown-icon.svg"
   inkscape:version="0.92.4 (unknown)">

  <path
     style="stroke-width:1.33333325"
     d="m 5.4722853,70.321875 c -3.170347,-3.230348 -5.49612304,-6.677798 -5.16838904,-7.660996 0.412956,-1.238868 1.79026504,-0.544552 4.48665704,2.261769 7.6944747,8.008177 7.8055327,8.0245 13.8015617,2.028471 5.802433,-5.802434 6.755882,-6.339619 6.755882,-3.806352 0,2.020838 -10.705259,13.050469 -12.666666,13.050469 -0.794628,0 -4.0386987,-2.643012 -7.2090457,-5.873361 z m 0.82772,-11.170276 c -5.95325604,-6.04414 -7.823069,-9.62303 -5.027612,-9.62303 0.691751,0 2.082788,1.177939 3.091195,2.61764 1.008406,1.439703 3.41884,3.864696 5.356519,5.388875 l 3.5230527,2.771233 5.229724,-5.388873 c 2.876348,-2.963881 5.599937,-5.388875 6.052418,-5.388875 2.458063,0 0.07057,4.174391 -5.558631,9.718951 l -6.381327,6.285372 z m 0.08151,-13.034766 C 0.78282326,43.078535 0.01466026,40.276083 0.01466026,22.888952 c 0,-15.3672894 0.158278,-16.3065384 3.27272804,-19.4209882 4.623951,-4.6239517 14.1639257,-4.6239517 18.7878777,0 3.114449,3.1144498 3.272726,4.0536988 3.272726,19.4209882 0,8.881544 -0.617787,17.302607 -1.372859,18.713472 C 22.3912,44.562028 15.92444,48.219945 12.414206,48.141852 11.094455,48.112492 8.3797453,47.201233 6.3815153,46.116833 Z M 19.595391,41.296151 c 2.858662,-2.685575 3.085934,-3.966598 3.085934,-17.39394 0,-13.61182 -0.199376,-14.6942294 -3.272726,-17.7675805 -1.8,-1.8 -4.827273,-3.2727273 -6.727273,-3.2727273 -1.9,0 -4.9272717,1.4727273 -6.7272717,3.2727273 -3.072824,3.0728243 -3.272727,4.1569335 -3.272727,17.7485845 0,12.725048 0.328807,14.82879 2.718607,17.39394 3.56201,3.823369 10.1365207,3.832168 14.1954567,0.019 z M 9.3479983,10.861903 c 0,-1.9555554 0.8888887,-2.6666665 3.3333327,-2.6666665 2.444444,0 3.333333,0.7111111 3.333333,2.6666665 0,1.955555 -0.888889,2.666666 -3.333333,2.666666 -2.444444,0 -3.3333327,-0.711111 -3.3333327,-2.666666 z"
     id="path65"
     inkscape:connector-curvature="0" />
</svg>
