<svg width="40" height="40" viewBox="0 0 40 40" xmlns="http://www.w3.org/2000/svg">
<path fill-rule="evenodd" clip-rule="evenodd" d="M18.8215 8.82141C19.4724 8.17053 20.5276 8.17053 21.1785 8.82141L29.5118 17.1547C30.1627 17.8056 30.1627 18.8609 29.5118 19.5118C28.861 20.1626 27.8057 20.1626 27.1548 19.5118L20 12.3569L12.8452 19.5118C12.1943 20.1626 11.139 20.1626 10.4882 19.5118C9.83728 18.8609 9.83728 17.8056 10.4882 17.1547L18.8215 8.82141Z"/>
<path fill-rule="evenodd" clip-rule="evenodd" d="M18.8215 20.4882C19.4724 19.8373 20.5276 19.8373 21.1785 20.4882L29.5118 28.8215C30.1627 29.4724 30.1627 30.5276 29.5118 31.1785C28.861 31.8294 27.8057 31.8294 27.1548 31.1785L20 24.0237L12.8452 31.1785C12.1943 31.8294 11.139 31.8294 10.4882 31.1785C9.83728 30.5276 9.83728 29.4724 10.4882 28.8215L18.8215 20.4882Z"/>
</svg>
