<?xml version="1.0" encoding="UTF-8" standalone="no"?>
<!-- Created with Inkscape (http://www.inkscape.org/) -->

<svg
   xmlns:dc="http://purl.org/dc/elements/1.1/"
   xmlns:cc="http://creativecommons.org/ns#"
   xmlns:rdf="http://www.w3.org/1999/02/22-rdf-syntax-ns#"
   xmlns:svg="http://www.w3.org/2000/svg"
   xmlns="http://www.w3.org/2000/svg"
   xmlns:sodipodi="http://sodipodi.sourceforge.net/DTD/sodipodi-0.dtd"
   xmlns:inkscape="http://www.inkscape.org/namespaces/inkscape"
   version="1.1"
   id="svg147"
   width="40"
   height="40"
   viewBox="0 0 40 40"
   sodipodi:docname="soc-icon-3.svg"
   inkscape:version="0.92.4 (unknown)">
  <path
     style="stroke-width:1.33333337"
     d="M 3.272727,36.727273 C 0.230412,33.684957 0,32.507295 0,20 0,7.4927048 0.230412,6.3150423 3.272727,3.2727273 6.315042,0.23041223 7.492704,0 20,0 32.507295,0 33.684957,0.23041223 36.727273,3.2727273 39.769588,6.3150423 40,7.4927048 40,20 40,32.507295 39.769588,33.684957 36.727273,36.727273 33.684957,39.769588 32.507295,40 20,40 7.492704,40 6.315042,39.769588 3.272727,36.727273 Z m 24.183842,-10.19678 c 3.018364,-3.335256 2.703443,-10.296406 -0.615978,-13.615828 -5.901984,-5.9019847 -16.703092,-1.253184 -16.465962,7.086958 0.264973,9.319458 10.883576,13.377984 17.08194,6.52887 z m -12.538488,-1.2491 c -3.642943,-3.393918 -3.704672,-6.600922 -0.199474,-10.363312 3.393918,-3.642943 6.600922,-3.704672 10.363312,-0.199474 3.642944,3.393918 3.704673,6.600922 0.199474,10.363312 -3.393918,3.642944 -6.600922,3.704673 -10.363312,0.199474 z M 33.906631,9.4844091 C 34.308501,8.8341675 33.797328,7.6050324 32.770689,6.752998 30.692384,5.0281572 28.564188,7.01014 30,9.3333333 c 1.020269,1.6508297 2.933992,1.7248367 3.906631,0.1510758 z"
     id="path157"
     inkscape:connector-curvature="0" />
</svg>
