<?xml version="1.0" encoding="UTF-8" standalone="no"?>
<!-- Created with Inkscape (http://www.inkscape.org/) -->

<svg
   xmlns:dc="http://purl.org/dc/elements/1.1/"
   xmlns:cc="http://creativecommons.org/ns#"
   xmlns:rdf="http://www.w3.org/1999/02/22-rdf-syntax-ns#"
   xmlns:svg="http://www.w3.org/2000/svg"
   xmlns="http://www.w3.org/2000/svg"
   xmlns:sodipodi="http://sodipodi.sourceforge.net/DTD/sodipodi-0.dtd"
   xmlns:inkscape="http://www.inkscape.org/namespaces/inkscape"
   version="1.1"
   id="svg302"
   width="40"
   height="31.333334"
   viewBox="0 0 40 31.333334"
   sodipodi:docname="soc-icon-1.svg"
   inkscape:version="0.92.4 (unknown)">
  <path
     style="stroke-width:0.33333334"
     d="M 1.133333,30.2 0,29.066667 v -9.354178 -9.354178 l 1.583333,1.152266 c 4.557891,3.316992 14.096302,9.817766 15.320054,10.441173 1.855704,0.945337 4.335495,0.945908 6.193226,0.0014 C 24.386333,21.297474 34.12598,14.644808 38.25,11.602654 L 40,10.311737 v 9.377465 9.377465 L 38.866667,30.2 37.733333,31.333334 H 20 2.266667 Z M 18.166667,19.436105 C 15.459631,17.981875 3.150831,9.0616329 1.841093,7.6048899 -0.41169,5.0992527 -0.587549,2.5008004 1.383414,0.842344 L 2.384484,0 h 17.674424 17.674425 l 1.133334,1.1333334 C 39.740397,2.0070634 40,2.5445827 40,3.479946 c 0,1.41938 -0.89705,3.3225979 -2.225303,4.7212969 -0.99148,1.044067 -14.179516,10.3134241 -16.008144,11.2515031 -1.325751,0.680106 -2.31138,0.675549 -3.599886,-0.01664 z"
     id="path312"
     inkscape:connector-curvature="0" />
</svg>
