<svg width="40" height="149" viewBox="0 0 40 149" xmlns="http://www.w3.org/2000/svg">
<path fill-rule="evenodd" clip-rule="evenodd" d="M18.8215 8.82165C19.4724 8.17078 20.5276 8.17078 21.1785 8.82165L29.5118 17.155C30.1627 17.8059 30.1627 18.8611 29.5118 19.512C28.861 20.1629 27.8057 20.1629 27.1548 19.512L20 12.3572L12.8452 19.512C12.1943 20.1629 11.139 20.1629 10.4882 19.512C9.83728 18.8611 9.83728 17.8059 10.4882 17.155L18.8215 8.82165Z"/>
<path fill-rule="evenodd" clip-rule="evenodd" d="M18.8215 20.4882C19.4724 19.8373 20.5276 19.8373 21.1785 20.4882L29.5118 28.8215C30.1627 29.4724 30.1627 30.5276 29.5118 31.1785C28.861 31.8294 27.8057 31.8294 27.1548 31.1785L20 24.0237L12.8452 31.1785C12.1943 31.8294 11.139 31.8294 10.4882 31.1785C9.83728 30.5276 9.83728 29.4724 10.4882 28.8215L18.8215 20.4882Z"/>
<path d="M29 132.306L29 136.114L21.0781 136.114L21.0781 143.541L29 143.541L29 147.35L10.5156 147.35L10.5156 143.541L18.0059 143.541L18.0059 136.114L10.5156 136.114L10.5156 132.306L29 132.306ZM25.1914 118.303L25.1914 124.98L29 126.25L29 130.3L10.5156 123.419L10.5156 119.89L29 112.971L29 117.021L25.1914 118.303ZM22.1064 123.952L22.1064 119.331L15.1875 121.654L22.1064 123.952ZM29 111.244L10.5156 111.244L10.5156 104.77C10.5156 102.527 10.9473 100.826 11.8105 99.666C12.6654 98.5065 13.9222 97.9268 15.5811 97.9268C16.4867 97.9268 17.2865 98.1595 17.9805 98.625C18.666 99.0905 19.1696 99.738 19.4912 100.567C19.7282 99.6195 20.2064 98.8747 20.9258 98.333C21.6452 97.7829 22.5254 97.5078 23.5664 97.5078C25.3437 97.5078 26.6895 98.0749 27.6035 99.209C28.5176 100.343 28.9831 101.96 29 104.059L29 111.244ZM20.9512 107.436L25.9404 107.436L25.9404 104.173C25.9404 103.276 25.7288 102.577 25.3057 102.078C24.874 101.57 24.2816 101.316 23.5283 101.316C21.8356 101.316 20.9766 102.192 20.9512 103.944L20.9512 107.436ZM18.2598 107.436L18.2598 104.617C18.2259 102.696 17.46 101.735 15.9619 101.735C15.124 101.735 14.5231 101.981 14.1592 102.472C13.7868 102.954 13.6006 103.72 13.6006 104.77L13.6006 107.436L18.2598 107.436ZM20.9893 83.5176L20.9893 90.8301L25.9404 90.8301L25.9404 82.248L29 82.248L29 94.6387L10.5156 94.6387L10.5156 82.2734L13.6006 82.2734L13.6006 90.8301L18.0059 90.8301L18.0059 83.5176L20.9893 83.5176ZM22.4873 76.2051L29 76.2051L29 80.0137L10.5156 80.0137L10.5156 72.8027C10.5156 71.4147 10.7695 70.196 11.2773 69.1465C11.7852 68.0885 12.5088 67.276 13.4482 66.709C14.3792 66.1419 15.4414 65.8584 16.6348 65.8584C18.446 65.8584 19.8763 66.4805 20.9258 67.7246C21.9668 68.9603 22.4873 70.6742 22.4873 72.8662L22.4873 76.2051ZM19.4023 76.2051L19.4023 72.8027C19.4023 71.7956 19.1654 71.0296 18.6914 70.5049C18.2174 69.9717 17.5404 69.7051 16.6602 69.7051C15.7546 69.7051 15.0225 69.9717 14.4639 70.5049C13.9053 71.0381 13.6175 71.7744 13.6006 72.7139L13.6006 76.2051L19.4023 76.2051ZM16.8887 57.2764L10.5156 53.8105L10.5156 49.4307L19.6816 54.8135L29 49.291L29 53.7217L22.5254 57.2764L29 60.8311L29 65.2617L19.6816 59.7393L10.5156 65.1221L10.5156 60.7422L16.8887 57.2764Z"/>
</svg>
