<svg width="57" height="57" viewBox="0 0 57 57" xmlns="http://www.w3.org/2000/svg">
<path fill-rule="evenodd" clip-rule="evenodd" d="M28.5 7.125C16.6949 7.125 7.125 16.6949 7.125 28.5C7.125 40.3051 16.6949 49.875 28.5 49.875C40.3051 49.875 49.875 40.3051 49.875 28.5C49.875 16.6949 40.3051 7.125 28.5 7.125ZM2.375 28.5C2.375 14.0716 14.0716 2.375 28.5 2.375C42.9284 2.375 54.625 14.0716 54.625 28.5C54.625 42.9284 42.9284 54.625 28.5 54.625C14.0716 54.625 2.375 42.9284 2.375 28.5Z"/>
<path fill-rule="evenodd" clip-rule="evenodd" d="M22.6293 16.906C23.4016 16.4927 24.3386 16.538 25.0674 17.0239L39.3174 26.5239C39.9781 26.9644 40.375 27.7059 40.375 28.5C40.375 29.2941 39.9781 30.0356 39.3174 30.4761L25.0674 39.9761C24.3386 40.462 23.4016 40.5073 22.6293 40.094C21.8571 39.6807 21.375 38.8759 21.375 38V19C21.375 18.1241 21.8571 17.3193 22.6293 16.906ZM26.125 23.4377V33.5623L33.7184 28.5L26.125 23.4377Z"/>
</svg>
